<svg width="229" height="34" viewBox="0 0 229 34" fill="none" xmlns="http://www.w3.org/2000/svg">
<path d="M16.184 33.4768C22.472 33.4768 26.552 30.7408 27.896 26.0368H28.232V32.9968H32.936V16.5808H15.896V20.5168H27.8V20.9488C27.8 26.3728 24.776 28.4848 17.096 28.4848C9.56 28.4848 5.912 24.9328 5.912 16.9168C5.912 8.90082 9.608 5.30083 17.336 5.30083C24.008 5.30083 27.224 7.79682 27.224 12.4048V12.7888H32.936V12.4048C32.936 4.96482 26.6 0.356826 17.48 0.356826C7.208 0.356826 0.44 6.88482 0.44 16.9168C0.44 26.9488 6.728 33.4768 16.184 33.4768ZM41.6663 32.9968L45.3623 24.6448H62.3542L66.0503 32.9968H71.9063L57.5543 0.836825H50.2583L35.9062 32.9968H41.6663ZM51.7943 10.1968L53.6663 5.63682H54.0503L55.9223 10.1968L60.2903 19.9888H47.4263L51.7943 10.1968ZM100.314 32.9968V28.3408H80.4903V0.836825H75.3063V32.9968H100.314ZM129.674 32.9968V28.3408H109.85V0.836825H104.666V32.9968H129.674ZM159.753 32.9968V28.3408H139.209V19.1248H159.033V14.5168H139.209V5.49283H159.753V0.836825H134.025V32.9968H159.753ZM169.975 32.9968V20.5168H175.879C179.911 20.5168 181.399 21.5728 182.839 24.1168L187.975 32.9968H193.927L188.551 23.6848C187.399 21.6688 186.247 20.2288 183.751 19.5568V19.2208C189.799 18.8848 193.303 15.6208 193.303 10.2928C193.303 4.29282 188.791 0.836825 181.495 0.836825H164.791V32.9968H169.975ZM169.975 5.49283H181.447C185.767 5.49283 187.927 7.07683 187.927 11.0128C187.927 15.0448 185.767 16.5328 181.447 16.5328H169.975V5.49283ZM214.553 32.9968V22.0048L228.857 0.836825H222.473L214.937 12.2608L212.297 16.3408H211.913L209.225 12.2608L201.641 0.836825H195.305L209.417 21.9088V32.9968H214.553Z" fill="black"/>
</svg>
