<svg width="140" height="31" viewBox="0 0 140 31" fill="none" xmlns="http://www.w3.org/2000/svg">
<path d="M22.419 13.8678C22.04 14.2491 21.7498 14.7093 21.569 15.2155C21.3882 15.7218 21.3213 16.2617 21.373 16.7968L21.355 16.7788C21.4082 17.4087 21.3232 18.0425 21.1061 18.6362C20.889 19.2298 20.545 19.7689 20.0981 20.2159C19.6511 20.6628 19.112 21.0069 18.5183 21.2239C17.9247 21.441 17.2908 21.526 16.661 21.4728L16.679 21.4908C15.9256 21.4207 15.1689 21.5846 14.512 21.9603C13.8552 22.336 13.3302 22.9051 13.0087 23.5901C12.6872 24.2751 12.5847 25.0425 12.7153 25.7879C12.846 26.5332 13.2033 27.2201 13.7386 27.7549C14.2739 28.2897 14.9611 28.6464 15.7065 28.7763C16.452 28.9063 17.2193 28.8031 17.904 28.481C18.5887 28.1588 19.1573 27.6334 19.5324 26.9762C19.9075 26.319 20.0708 25.5622 20 24.8088L20.019 24.8268C19.9658 24.197 20.0507 23.5631 20.2678 22.9694C20.4849 22.3758 20.829 21.8367 21.2759 21.3897C21.7229 20.9428 22.262 20.5987 22.8556 20.3817C23.4493 20.1646 24.0831 20.0796 24.713 20.1328L24.694 20.1148C25.3094 20.1701 25.9289 20.0692 26.495 19.8214C27.061 19.5736 27.5554 19.1869 27.9322 18.6972C28.309 18.2075 28.5562 17.6305 28.6506 17.0199C28.7451 16.4092 28.6839 15.7846 28.4727 15.2038C28.2615 14.6231 27.9071 14.1051 27.4424 13.6978C26.9777 13.2905 26.4177 13.0071 25.8143 12.8739C25.2109 12.7407 24.5836 12.7619 23.9906 12.9356C23.3976 13.1094 22.8581 13.43 22.422 13.8678H22.419Z" fill="black"/>
<path d="M15.042 19.1328L15.023 19.1148C15.5583 19.1687 16.0989 19.103 16.6058 18.9224C17.1126 18.7418 17.573 18.4509 17.9536 18.0706C18.3341 17.6903 18.6255 17.2301 18.8064 16.7234C18.9874 16.2167 19.0535 15.6762 19 15.1408L19.019 15.1588C18.9658 14.5289 19.0508 13.8951 19.2678 13.3014C19.4849 12.7078 19.829 12.1687 20.2759 11.7217C20.7229 11.2748 21.262 10.9307 21.8556 10.7137C22.4493 10.4966 23.0831 10.4117 23.713 10.4648L23.694 10.4468C24.4475 10.5176 25.2044 10.3542 25.8616 9.97892C26.5189 9.60366 27.0443 9.03479 27.3663 8.34992C27.6883 7.66506 27.7912 6.89753 27.661 6.15202C27.5308 5.40651 27.1738 4.71933 26.6386 4.18419C26.1035 3.64906 25.4163 3.29202 24.6708 3.1618C23.9253 3.03157 23.1578 3.13448 22.4729 3.4565C21.788 3.77851 21.2192 4.30396 20.8439 4.96117C20.4686 5.61837 20.3052 6.37534 20.376 7.12882L20.358 7.10982C20.4113 7.73971 20.3265 8.37365 20.1095 8.96737C19.8925 9.56109 19.5484 10.1003 19.1015 10.5473C18.6545 10.9942 18.1153 11.3383 17.5216 11.5553C16.9278 11.7723 16.2939 11.8571 15.664 11.8038L15.682 11.8228C15.1467 11.7689 14.606 11.8346 14.0992 12.0152C13.5924 12.1957 13.132 12.4867 12.7514 12.867C12.3708 13.2473 12.0795 13.7075 11.8985 14.2142C11.7176 14.7209 11.6515 15.2614 11.705 15.7968L11.687 15.7788C11.74 16.4086 11.6549 17.0424 11.4378 17.636C11.2206 18.2295 10.8766 18.7686 10.4297 19.2155C9.98273 19.6624 9.44369 20.0064 8.85013 20.2236C8.25657 20.4407 7.62278 20.5258 6.99297 20.4728L7.01097 20.4908C6.25749 20.42 5.50052 20.5834 4.84331 20.9587C4.18611 21.334 3.66066 21.9028 3.33865 22.5877C3.01663 23.2726 2.91371 24.0401 3.04394 24.7856C3.17417 25.5311 3.53121 26.2183 4.06634 26.7534C4.60148 27.2886 5.28866 27.6456 6.03417 27.7758C6.77968 27.906 7.54721 27.8031 8.23208 27.4811C8.91694 27.1591 9.48581 26.6337 9.86107 25.9765C10.2364 25.3192 10.3998 24.5623 10.329 23.8088L10.348 23.8268C10.2948 23.1969 10.3798 22.5631 10.5969 21.9694C10.8139 21.3758 11.158 20.8367 11.6049 20.3897C12.0519 19.9428 12.591 19.5987 13.1846 19.3817C13.7783 19.1646 14.4121 19.0796 15.042 19.1328Z" fill="black"/>
<path d="M8.34003 17.1258C8.71905 16.7446 9.00923 16.2844 9.18987 15.7781C9.37051 15.2718 9.43715 14.7318 9.38503 14.1968L9.40402 14.2148C9.35082 13.5848 9.43578 12.9507 9.65299 12.3569C9.8702 11.7631 10.2144 11.2239 10.6616 10.7769C11.1088 10.3299 11.6481 9.98596 12.242 9.76901C12.8359 9.55205 13.47 9.46735 14.1 9.52083L14.081 9.50283C14.8342 9.5734 15.5909 9.40991 16.2478 9.03467C16.9047 8.65944 17.4298 8.09071 17.7517 7.40606C18.0735 6.7214 18.1763 5.95415 18.0461 5.20892C17.9159 4.46369 17.5589 3.77677 17.024 3.24183C16.4891 2.70689 15.8021 2.34997 15.0569 2.21975C14.3117 2.08952 13.5444 2.19234 12.8598 2.51416C12.1751 2.83598 11.6064 3.36115 11.2312 4.01805C10.8559 4.67495 10.6924 5.43161 10.763 6.18483L10.745 6.16683C10.7982 6.79668 10.7132 7.43055 10.4961 8.02419C10.279 8.61783 9.93505 9.15694 9.48809 9.6039C9.04114 10.0509 8.50202 10.3949 7.90838 10.6119C7.31474 10.829 6.68088 10.914 6.05103 10.8608L6.06903 10.8788C5.4536 10.8236 4.83419 10.9247 4.26821 11.1726C3.70223 11.4205 3.20798 11.8073 2.83127 12.2971C2.45456 12.7868 2.20758 13.3638 2.1132 13.9744C2.01883 14.5851 2.08012 15.2097 2.29139 15.7903C2.50266 16.371 2.85709 16.8889 3.32182 17.2961C3.78655 17.7034 4.34655 17.9867 4.94993 18.1199C5.5533 18.253 6.18053 18.2317 6.7735 18.058C7.36646 17.8842 7.90596 17.5636 8.34202 17.1258H8.34003Z" fill="black"/>
<path d="M39.317 7.15186H42.287V21.6049H39.317V7.15186Z" fill="black"/>
<path d="M43.969 16.6558C43.9649 15.6172 44.2691 14.6006 44.8431 13.735C45.4171 12.8694 46.2351 12.1936 47.1935 11.7933C48.1519 11.3929 49.2075 11.286 50.2267 11.4861C51.2459 11.6862 52.1828 12.1842 52.9187 12.9172C53.6546 13.6501 54.1564 14.585 54.3606 15.6034C54.5648 16.6218 54.4621 17.6779 54.0656 18.6379C53.6691 19.5978 52.9966 20.4186 52.1333 20.996C51.2699 21.5735 50.2547 21.8818 49.216 21.8818C48.5266 21.8897 47.8425 21.76 47.2037 21.5004C46.5649 21.2408 45.9843 20.8565 45.4958 20.37C45.0072 19.8834 44.6206 19.3043 44.3585 18.6666C44.0963 18.0289 43.9639 17.3453 43.969 16.6558ZM51.493 16.6558C51.4806 16.2081 51.3365 15.774 51.0788 15.4077C50.821 15.0415 50.461 14.7593 50.0438 14.5966C49.6265 14.4338 49.1706 14.3976 48.7329 14.4926C48.2952 14.5876 47.8952 14.8094 47.5829 15.1305C47.2707 15.4515 47.0599 15.8575 46.9772 16.2977C46.8944 16.7378 46.9431 17.1926 47.1174 17.6052C47.2917 18.0178 47.5837 18.3698 47.9569 18.6173C48.3302 18.8648 48.7682 18.9968 49.216 18.9968C49.5227 19.005 49.8278 18.9495 50.1121 18.8339C50.3963 18.7183 50.6535 18.5451 50.8674 18.3252C51.0813 18.1052 51.2474 17.8433 51.355 17.556C51.4627 17.2687 51.5097 16.9622 51.493 16.6558Z" fill="black"/>
<path d="M66.3 11.7058V21.1058C66.3 24.4318 63.706 25.8378 61.073 25.8378C60.146 25.9072 59.2177 25.7199 58.39 25.2966C57.5624 24.8732 56.8673 24.2301 56.381 23.4378L58.915 21.9728C59.1194 22.3858 59.4451 22.7265 59.8484 22.9494C60.2518 23.1722 60.7136 23.2666 61.172 23.2198C61.465 23.2604 61.7634 23.2346 62.0451 23.1443C62.3267 23.054 62.5845 22.9015 62.7993 22.6982C63.0141 22.4948 63.1804 22.2458 63.286 21.9694C63.3915 21.6931 63.4335 21.3966 63.409 21.1018V20.1968C63.0612 20.6223 62.6186 20.9604 62.1165 21.1839C61.6144 21.4074 61.067 21.5101 60.518 21.4838C59.2118 21.4426 57.9729 20.8948 57.0635 19.9562C56.1541 19.0177 55.6456 17.7621 55.6456 16.4553C55.6456 15.1485 56.1541 13.8929 57.0635 12.9544C57.9729 12.0158 59.2118 11.468 60.518 11.4268C61.067 11.4005 61.6144 11.5032 62.1165 11.7267C62.6186 11.9502 63.0612 12.2883 63.409 12.7138V11.7038L66.3 11.7058ZM63.41 16.4568C63.43 15.9782 63.3062 15.5045 63.0547 15.0968C62.8032 14.689 62.4354 14.3659 61.9987 14.169C61.562 13.972 61.0764 13.9103 60.6043 13.9917C60.1322 14.0731 59.6953 14.2939 59.3497 14.6258C59.0042 14.9576 58.7659 15.3852 58.6654 15.8536C58.565 16.322 58.607 16.8098 58.7862 17.2541C58.9653 17.6984 59.2733 18.079 59.6705 18.3468C60.0677 18.6146 60.536 18.7574 61.015 18.7568C61.3271 18.7786 61.6402 18.7348 61.9343 18.6282C62.2284 18.5216 62.4969 18.3545 62.7225 18.1379C62.9481 17.9212 63.1259 17.6597 63.2443 17.3701C63.3627 17.0806 63.4192 16.7695 63.41 16.4568Z" fill="black"/>
<path d="M67.982 16.6558C67.9779 15.6172 68.282 14.6006 68.8561 13.735C69.4301 12.8694 70.2481 12.1936 71.2065 11.7933C72.1649 11.3929 73.2205 11.286 74.2397 11.4861C75.2589 11.6862 76.1958 12.1842 76.9317 12.9172C77.6676 13.6501 78.1694 14.585 78.3736 15.6034C78.5778 16.6218 78.4751 17.6779 78.0786 18.6379C77.6821 19.5978 77.0096 20.4186 76.1463 20.996C75.2829 21.5735 74.2677 21.8818 73.229 21.8818C72.5396 21.8897 71.8554 21.76 71.2167 21.5004C70.5779 21.2408 69.9973 20.8565 69.5088 20.37C69.0202 19.8834 68.6336 19.3043 68.3715 18.6666C68.1093 18.0289 67.9769 17.3453 67.982 16.6558ZM75.506 16.6558C75.4936 16.2081 75.3495 15.774 75.0918 15.4077C74.834 15.0415 74.474 14.7593 74.0568 14.5966C73.6395 14.4338 73.1835 14.3976 72.7459 14.4926C72.3082 14.5876 71.9082 14.8094 71.5959 15.1305C71.2837 15.4515 71.0729 15.8575 70.9901 16.2977C70.9073 16.7378 70.9561 17.1926 71.1304 17.6052C71.3047 18.0178 71.5967 18.3698 71.9699 18.6173C72.3432 18.8648 72.7811 18.9968 73.229 18.9968C73.5357 19.005 73.8408 18.9495 74.125 18.8339C74.4093 18.7183 74.6665 18.5451 74.8804 18.3252C75.0943 18.1052 75.2604 17.8433 75.368 17.556C75.4757 17.2687 75.5227 16.9622 75.506 16.6558Z" fill="black"/>
<path d="M79.861 9.05281C79.861 8.70036 79.9655 8.35583 80.1613 8.06279C80.3571 7.76974 80.6355 7.54133 80.9611 7.40646C81.2867 7.27158 81.645 7.23629 81.9907 7.30505C82.3363 7.37381 82.6539 7.54353 82.9031 7.79275C83.1523 8.04196 83.322 8.35949 83.3908 8.70517C83.4595 9.05084 83.4242 9.40913 83.2894 9.73475C83.1545 10.0604 82.9261 10.3387 82.633 10.5345C82.34 10.7303 81.9955 10.8348 81.643 10.8348C81.1719 10.8301 80.7213 10.6409 80.3881 10.3077C80.055 9.97451 79.8657 9.52397 79.861 9.05281ZM80.161 11.7058H83.132V21.6058H80.157L80.161 11.7058Z" fill="black"/>
<path d="M95.956 16.6559C95.9903 17.3102 95.895 17.9648 95.6754 18.5821C95.4559 19.1994 95.1165 19.7672 94.6767 20.2529C94.237 20.7385 93.7055 21.1325 93.113 21.4121C92.5204 21.6916 91.8785 21.8513 91.224 21.8819C90.6736 21.9119 90.1235 21.8191 89.6134 21.6102C89.1033 21.4012 88.6462 21.0814 88.275 20.6739V25.5649H85.305V11.7059H88.275V12.6359C88.6463 12.2287 89.1036 11.9091 89.6136 11.7004C90.1237 11.4916 90.6737 11.3989 91.224 11.4289C91.8786 11.4594 92.5207 11.619 93.1134 11.8986C93.7061 12.1782 94.2376 12.5722 94.6774 13.058C95.1172 13.5438 95.4566 14.1118 95.676 14.7293C95.8954 15.3467 95.9906 16.0015 95.956 16.6559ZM92.986 16.6559C92.9744 16.1926 92.8264 15.743 92.5605 15.3633C92.2946 14.9837 91.9227 14.6909 91.4913 14.5217C91.0598 14.3524 90.588 14.3141 90.1349 14.4117C89.6818 14.5092 89.2676 14.7382 88.944 15.07C88.6204 15.4019 88.4019 15.8217 88.3158 16.2772C88.2297 16.7326 88.2798 17.2032 88.4599 17.6303C88.6399 18.0574 88.942 18.4218 89.3282 18.6781C89.7144 18.9343 90.1675 19.071 90.631 19.0709C90.9492 19.0851 91.2668 19.0318 91.563 18.9146C91.8591 18.7975 92.1272 18.619 92.3495 18.391C92.5719 18.1629 92.7435 17.8905 92.8532 17.5915C92.9629 17.2925 93.0082 16.9736 92.986 16.6559Z" fill="black"/>
<path d="M105.121 18.6348C105.121 20.9118 103.142 21.8818 101.004 21.8818C100.14 21.96 99.2727 21.7774 98.5138 21.3573C97.7549 20.9373 97.1395 20.2993 96.747 19.5258L99.32 18.0608C99.4241 18.4183 99.6477 18.7294 99.9534 18.9419C100.259 19.1545 100.629 19.2558 101 19.2288C101.712 19.2288 102.069 19.0108 102.069 18.6158C102.069 17.5258 97.198 18.1008 97.198 14.6758C97.198 12.5168 99.02 11.4288 101.079 11.4288C101.853 11.4043 102.619 11.5879 103.298 11.9604C103.977 12.333 104.544 12.8808 104.939 13.5468L102.405 14.9128C102.294 14.6535 102.109 14.4326 101.873 14.2777C101.637 14.1228 101.361 14.0408 101.079 14.0418C100.564 14.0418 100.247 14.2418 100.247 14.5958C100.251 15.7248 105.121 14.9718 105.121 18.6348Z" fill="black"/>
<path d="M115.97 11.7058V21.6058H113V20.6748C112.657 21.0856 112.222 21.4093 111.73 21.6193C111.238 21.8293 110.704 21.9196 110.17 21.8828C108.17 21.8828 106.47 20.4578 106.47 17.7828V11.7058H109.44V17.3478C109.415 17.5836 109.442 17.822 109.519 18.0463C109.595 18.2707 109.72 18.4757 109.884 18.647C110.048 18.8183 110.247 18.9518 110.468 19.0383C110.688 19.1248 110.925 19.1622 111.162 19.1478C112.251 19.1478 113.003 18.5148 113.003 17.1088V11.7088L115.97 11.7058Z" fill="black"/>
<path d="M133 15.5268V21.6048H130.03V15.7838C130.03 14.7938 129.555 14.1608 128.605 14.1608C127.615 14.1608 127.06 14.8538 127.06 16.0218V21.6048H124.091V15.7838C124.091 14.7938 123.616 14.1608 122.665 14.1608C121.675 14.1608 121.121 14.8538 121.121 16.0218V21.6048H118.151V11.7048H121.121V12.6148C121.429 12.2111 121.833 11.8909 122.296 11.6836C122.76 11.4762 123.268 11.3883 123.774 11.4278C124.282 11.4029 124.788 11.5102 125.243 11.7391C125.697 11.9679 126.084 12.3107 126.367 12.7338C126.696 12.2911 127.132 11.9391 127.634 11.7107C128.136 11.4823 128.688 11.385 129.238 11.4278C131.511 11.4288 133 13.0518 133 15.5268Z" fill="black"/>
<path d="M135.512 11.6448C136.729 11.6448 137.716 10.658 137.716 9.44082C137.716 8.22358 136.729 7.23682 135.512 7.23682C134.295 7.23682 133.308 8.22358 133.308 9.44082C133.308 10.658 134.295 11.6448 135.512 11.6448Z" fill="black"/>
</svg>
