<svg width="355" height="13" viewBox="0 0 355 13" fill="none" xmlns="http://www.w3.org/2000/svg">
<rect y="5.49683" width="24" height="2" fill="black"/>
<path d="M34.054 10.9968V5.65383L34.002 4.39283H34.106L34.639 5.65383L37.044 10.4768H38.734L41.139 5.65383L41.672 4.39283H41.776L41.724 5.65383V10.9968H43.128V2.28683H41.217L38.734 7.33083L37.967 9.13783H37.863L37.07 7.33083L34.561 2.28683H32.65V10.9968H34.054ZM50.9033 10.9968V8.01983L54.7773 2.28683H53.0483L51.0073 5.38083L50.2923 6.48583H50.1883L49.4603 5.38083L47.4062 2.28683H45.6902L49.5123 7.99383V10.9968H50.9033ZM65.7776 11.1268C68.2476 11.1268 69.9506 9.82683 69.9506 7.73383V7.56483H68.4036V7.73383C68.4036 9.07283 67.5586 9.77483 65.7906 9.77483C63.7496 9.77483 62.7616 8.81283 62.7616 6.64183C62.7616 4.47083 63.7496 3.49583 65.7906 3.49583C67.5586 3.49583 68.4036 4.21083 68.4036 5.53683V5.71883H69.9506V5.53683C69.9506 3.45683 68.2346 2.15683 65.7776 2.15683C63.0736 2.15683 61.2796 3.92483 61.2796 6.64183C61.2796 9.35883 63.0736 11.1268 65.7776 11.1268ZM79.758 10.9968V9.73583H74.389V2.28683H72.985V10.9968H79.758ZM84.0696 10.9968V2.28683H82.6656V10.9968H84.0696ZM94.3377 10.9968V9.73583H88.7737V7.23983H94.1427V5.99183H88.7737V3.54783H94.3377V2.28683H87.3697V10.9968H94.3377ZM98.8353 10.9968V5.88783L98.7833 4.37983H98.8873L99.9793 5.91383L103.905 10.9968H105.413V2.28683H104.009V7.43483L104.074 9.00783H103.97L102.839 7.38283L98.9393 2.28683H97.4313V10.9968H98.8353ZM113.041 10.9968V3.54783H116.46V2.28683H108.218V3.54783H111.65V10.9968H113.041ZM122.934 11.1268C125.508 11.1268 126.587 9.90483 126.587 8.57883C126.587 7.30483 125.729 6.51183 123.987 6.19983L121.868 5.83583C120.841 5.61483 120.399 5.36783 120.399 4.61383C120.399 3.83383 121.023 3.44383 122.609 3.44383C124.416 3.44383 125.053 3.97683 125.053 5.04283V5.21183H126.444V5.13383C126.444 3.43083 125.287 2.15683 122.739 2.15683C120.035 2.15683 118.995 3.43083 118.995 4.69183C118.995 6.12183 120.035 6.79783 121.504 7.05783L123.636 7.40883C124.741 7.61683 125.183 7.90283 125.183 8.65683C125.183 9.47583 124.598 9.83983 122.934 9.83983C121.023 9.83983 120.412 9.31983 120.412 8.27983V8.07183H119.008V8.14983C119.008 9.98283 120.334 11.1268 122.934 11.1268Z" fill="black"/>
</svg>
